<svg version="1.2" xmlns="http://www.w3.org/2000/svg" viewBox="0 0 231 55" width="231" height="55"><defs><clipPath clipPathUnits="userSpaceOnUse" id="cp1"><path d="m-1574-60h1920v1666h-1920z"/></clipPath></defs><style>.a{fill:#061c2c}</style><g clip-path="url(#cp1)"><path fill-rule="evenodd" class="a" d="m78.4 1.5v52h-10.7v-52zm21.6 51.1c-2.5-1.3-5.3-3.5-7.2-5.3l5.5-7.5c1.3 1.3 3.1 2.7 4.4 3.5 2.2 1.4 4.6 2.1 7.2 2.1 1.7 0 4.1-0.4 6.1-2 0.8-0.7 2.2-2.3 2.2-5 0-1.8-0.7-3.2-2.1-4.5-1.6-1.3-4.9-2.5-6.5-3.1l-4.4-1.5c-2.6-0.9-5.3-2-7.2-4.1-2-2.1-3-5-3-8.8 0-4.6 1.5-8.4 4.4-11.5 3.2-3.2 7.1-4.6 12.7-4.6 5.5 0 10.3 1.5 14.8 4.7l-4.6 7.6c-2.8-2.3-5.8-3.5-8.8-3.5-1.7 0-4.1 0.2-5.8 2.1-1 1-1.6 2.5-1.6 4q0 2.2 1.4 3.5c1.2 1.1 2.6 1.6 5 2.5q0.9 0.3 2 0.7l4.1 1.6c2.5 0.9 5.1 2.1 7 3.9 3 2.9 3.7 6.7 3.7 9.4 0 5-1.7 9.8-4.5 12.7-3.3 3.5-8.2 5.2-14.6 5.2-4.1 0-7.3-0.6-10.2-2.1zm57.7-51.1v52h-10.8v-52zm-146.7 0l20.8 51.8h-10.6l-20.9-51.8zm20.5 28.9l11.3-28.9h10.6l-16.4 41.8zm155.2-7h-10.4c2-13.4 13.5-23.3 27.1-23.3 13.5 0 25 9.9 27.1 23.3h-10.5c-1.9-7.6-8.8-13.1-16.6-13.1-7.9 0-14.8 5.5-16.7 13.1zm-10.4 8.4h10.4c1.9 7.6 8.8 13 16.7 13 7.8 0 14.7-5.4 16.6-13h10.5c-2.1 13.3-13.6 23.3-27.1 23.3-13.6 0-25.1-10-27.1-23.3z"/></g></svg>